%TF.GenerationSoftware,KiCad,Pcbnew,6.0.2+dfsg-1*%
%TF.CreationDate,2023-01-16T16:06:15-05:00*%
%TF.ProjectId,valve_breakout_small9,76616c76-655f-4627-9265-616b6f75745f,rev?*%
%TF.SameCoordinates,Original*%
%TF.FileFunction,Legend,Top*%
%TF.FilePolarity,Positive*%
%FSLAX46Y46*%
G04 Gerber Fmt 4.6, Leading zero omitted, Abs format (unit mm)*
G04 Created by KiCad (PCBNEW 6.0.2+dfsg-1) date 2023-01-16 16:06:15*
%MOMM*%
%LPD*%
G01*
G04 APERTURE LIST*
%ADD10C,0.250000*%
%ADD11C,0.150000*%
%ADD12C,0.120000*%
G04 APERTURE END LIST*
D10*
X151799642Y-107813333D02*
X151871071Y-107670476D01*
X151871071Y-107432380D01*
X151799642Y-107337142D01*
X151728214Y-107289523D01*
X151585357Y-107241904D01*
X151442500Y-107241904D01*
X151299642Y-107289523D01*
X151228214Y-107337142D01*
X151156785Y-107432380D01*
X151085357Y-107622857D01*
X151013928Y-107718095D01*
X150942500Y-107765714D01*
X150799642Y-107813333D01*
X150656785Y-107813333D01*
X150513928Y-107765714D01*
X150442500Y-107718095D01*
X150371071Y-107622857D01*
X150371071Y-107384761D01*
X150442500Y-107241904D01*
X150871071Y-106956190D02*
X150871071Y-106575238D01*
X150371071Y-106813333D02*
X151656785Y-106813333D01*
X151799642Y-106765714D01*
X151871071Y-106670476D01*
X151871071Y-106575238D01*
X150871071Y-105813333D02*
X151871071Y-105813333D01*
X150871071Y-106241904D02*
X151656785Y-106241904D01*
X151799642Y-106194285D01*
X151871071Y-106099047D01*
X151871071Y-105956190D01*
X151799642Y-105860952D01*
X151728214Y-105813333D01*
X151871071Y-104908571D02*
X150371071Y-104908571D01*
X151799642Y-104908571D02*
X151871071Y-105003809D01*
X151871071Y-105194285D01*
X151799642Y-105289523D01*
X151728214Y-105337142D01*
X151585357Y-105384761D01*
X151156785Y-105384761D01*
X151013928Y-105337142D01*
X150942500Y-105289523D01*
X150871071Y-105194285D01*
X150871071Y-105003809D01*
X150942500Y-104908571D01*
X151871071Y-104432380D02*
X150871071Y-104432380D01*
X150371071Y-104432380D02*
X150442500Y-104480000D01*
X150513928Y-104432380D01*
X150442500Y-104384761D01*
X150371071Y-104432380D01*
X150513928Y-104432380D01*
X151871071Y-103813333D02*
X151799642Y-103908571D01*
X151728214Y-103956190D01*
X151585357Y-104003809D01*
X151156785Y-104003809D01*
X151013928Y-103956190D01*
X150942500Y-103908571D01*
X150871071Y-103813333D01*
X150871071Y-103670476D01*
X150942500Y-103575238D01*
X151013928Y-103527619D01*
X151156785Y-103480000D01*
X151585357Y-103480000D01*
X151728214Y-103527619D01*
X151799642Y-103575238D01*
X151871071Y-103670476D01*
X151871071Y-103813333D01*
X150371071Y-102860952D02*
X150371071Y-102765714D01*
X150442500Y-102670476D01*
X150513928Y-102622857D01*
X150656785Y-102575238D01*
X150942500Y-102527619D01*
X151299642Y-102527619D01*
X151585357Y-102575238D01*
X151728214Y-102622857D01*
X151799642Y-102670476D01*
X151871071Y-102765714D01*
X151871071Y-102860952D01*
X151799642Y-102956190D01*
X151728214Y-103003809D01*
X151585357Y-103051428D01*
X151299642Y-103099047D01*
X150942500Y-103099047D01*
X150656785Y-103051428D01*
X150513928Y-103003809D01*
X150442500Y-102956190D01*
X150371071Y-102860952D01*
X151871071Y-102194285D02*
X150871071Y-101670476D01*
X150871071Y-102194285D02*
X151871071Y-101670476D01*
X150871071Y-101432380D02*
X150871071Y-101051428D01*
X151871071Y-101289523D02*
X150585357Y-101289523D01*
X150442500Y-101241904D01*
X150371071Y-101146666D01*
X150371071Y-101051428D01*
X151799642Y-100003809D02*
X151871071Y-99860952D01*
X151871071Y-99622857D01*
X151799642Y-99527619D01*
X151728214Y-99480000D01*
X151585357Y-99432380D01*
X151442500Y-99432380D01*
X151299642Y-99480000D01*
X151228214Y-99527619D01*
X151156785Y-99622857D01*
X151085357Y-99813333D01*
X151013928Y-99908571D01*
X150942500Y-99956190D01*
X150799642Y-100003809D01*
X150656785Y-100003809D01*
X150513928Y-99956190D01*
X150442500Y-99908571D01*
X150371071Y-99813333D01*
X150371071Y-99575238D01*
X150442500Y-99432380D01*
X151871071Y-99003809D02*
X150871071Y-99003809D01*
X151013928Y-99003809D02*
X150942500Y-98956190D01*
X150871071Y-98860952D01*
X150871071Y-98718095D01*
X150942500Y-98622857D01*
X151085357Y-98575238D01*
X151871071Y-98575238D01*
X151085357Y-98575238D02*
X150942500Y-98527619D01*
X150871071Y-98432380D01*
X150871071Y-98289523D01*
X150942500Y-98194285D01*
X151085357Y-98146666D01*
X151871071Y-98146666D01*
X151871071Y-97241904D02*
X151085357Y-97241904D01*
X150942500Y-97289523D01*
X150871071Y-97384761D01*
X150871071Y-97575238D01*
X150942500Y-97670476D01*
X151799642Y-97241904D02*
X151871071Y-97337142D01*
X151871071Y-97575238D01*
X151799642Y-97670476D01*
X151656785Y-97718095D01*
X151513928Y-97718095D01*
X151371071Y-97670476D01*
X151299642Y-97575238D01*
X151299642Y-97337142D01*
X151228214Y-97241904D01*
X151871071Y-96622857D02*
X151799642Y-96718095D01*
X151656785Y-96765714D01*
X150371071Y-96765714D01*
X151871071Y-96099047D02*
X151799642Y-96194285D01*
X151656785Y-96241904D01*
X150371071Y-96241904D01*
X150371071Y-95099047D02*
X151871071Y-94765714D01*
X150371071Y-94432380D01*
X151871071Y-93670476D02*
X151085357Y-93670476D01*
X150942500Y-93718095D01*
X150871071Y-93813333D01*
X150871071Y-94003809D01*
X150942500Y-94099047D01*
X151799642Y-93670476D02*
X151871071Y-93765714D01*
X151871071Y-94003809D01*
X151799642Y-94099047D01*
X151656785Y-94146666D01*
X151513928Y-94146666D01*
X151371071Y-94099047D01*
X151299642Y-94003809D01*
X151299642Y-93765714D01*
X151228214Y-93670476D01*
X151871071Y-93051428D02*
X151799642Y-93146666D01*
X151656785Y-93194285D01*
X150371071Y-93194285D01*
X150871071Y-92765714D02*
X151871071Y-92527619D01*
X150871071Y-92289523D01*
X151799642Y-91527619D02*
X151871071Y-91622857D01*
X151871071Y-91813333D01*
X151799642Y-91908571D01*
X151656785Y-91956190D01*
X151085357Y-91956190D01*
X150942500Y-91908571D01*
X150871071Y-91813333D01*
X150871071Y-91622857D01*
X150942500Y-91527619D01*
X151085357Y-91480000D01*
X151228214Y-91480000D01*
X151371071Y-91956190D01*
X151085357Y-89956190D02*
X151156785Y-89813333D01*
X151228214Y-89765714D01*
X151371071Y-89718095D01*
X151585357Y-89718095D01*
X151728214Y-89765714D01*
X151799642Y-89813333D01*
X151871071Y-89908571D01*
X151871071Y-90289523D01*
X150371071Y-90289523D01*
X150371071Y-89956190D01*
X150442500Y-89860952D01*
X150513928Y-89813333D01*
X150656785Y-89765714D01*
X150799642Y-89765714D01*
X150942500Y-89813333D01*
X151013928Y-89860952D01*
X151085357Y-89956190D01*
X151085357Y-90289523D01*
X151871071Y-89289523D02*
X150871071Y-89289523D01*
X151156785Y-89289523D02*
X151013928Y-89241904D01*
X150942500Y-89194285D01*
X150871071Y-89099047D01*
X150871071Y-89003809D01*
X151799642Y-88289523D02*
X151871071Y-88384761D01*
X151871071Y-88575238D01*
X151799642Y-88670476D01*
X151656785Y-88718095D01*
X151085357Y-88718095D01*
X150942500Y-88670476D01*
X150871071Y-88575238D01*
X150871071Y-88384761D01*
X150942500Y-88289523D01*
X151085357Y-88241904D01*
X151228214Y-88241904D01*
X151371071Y-88718095D01*
X151871071Y-87384761D02*
X151085357Y-87384761D01*
X150942500Y-87432380D01*
X150871071Y-87527619D01*
X150871071Y-87718095D01*
X150942500Y-87813333D01*
X151799642Y-87384761D02*
X151871071Y-87480000D01*
X151871071Y-87718095D01*
X151799642Y-87813333D01*
X151656785Y-87860952D01*
X151513928Y-87860952D01*
X151371071Y-87813333D01*
X151299642Y-87718095D01*
X151299642Y-87480000D01*
X151228214Y-87384761D01*
X151871071Y-86908571D02*
X150371071Y-86908571D01*
X151299642Y-86813333D02*
X151871071Y-86527619D01*
X150871071Y-86527619D02*
X151442500Y-86908571D01*
X151871071Y-85956190D02*
X151799642Y-86051428D01*
X151728214Y-86099047D01*
X151585357Y-86146666D01*
X151156785Y-86146666D01*
X151013928Y-86099047D01*
X150942500Y-86051428D01*
X150871071Y-85956190D01*
X150871071Y-85813333D01*
X150942500Y-85718095D01*
X151013928Y-85670476D01*
X151156785Y-85622857D01*
X151585357Y-85622857D01*
X151728214Y-85670476D01*
X151799642Y-85718095D01*
X151871071Y-85813333D01*
X151871071Y-85956190D01*
X150871071Y-84765714D02*
X151871071Y-84765714D01*
X150871071Y-85194285D02*
X151656785Y-85194285D01*
X151799642Y-85146666D01*
X151871071Y-85051428D01*
X151871071Y-84908571D01*
X151799642Y-84813333D01*
X151728214Y-84765714D01*
X150871071Y-84432380D02*
X150871071Y-84051428D01*
X150371071Y-84289523D02*
X151656785Y-84289523D01*
X151799642Y-84241904D01*
X151871071Y-84146666D01*
X151871071Y-84051428D01*
X150371071Y-83099047D02*
X151871071Y-82765714D01*
X150371071Y-82432380D01*
X150371071Y-81908571D02*
X150371071Y-81813333D01*
X150442500Y-81718095D01*
X150513928Y-81670476D01*
X150656785Y-81622857D01*
X150942500Y-81575238D01*
X151299642Y-81575238D01*
X151585357Y-81622857D01*
X151728214Y-81670476D01*
X151799642Y-81718095D01*
X151871071Y-81813333D01*
X151871071Y-81908571D01*
X151799642Y-82003809D01*
X151728214Y-82051428D01*
X151585357Y-82099047D01*
X151299642Y-82146666D01*
X150942500Y-82146666D01*
X150656785Y-82099047D01*
X150513928Y-82051428D01*
X150442500Y-82003809D01*
X150371071Y-81908571D01*
X151728214Y-81146666D02*
X151799642Y-81099047D01*
X151871071Y-81146666D01*
X151799642Y-81194285D01*
X151728214Y-81146666D01*
X151871071Y-81146666D01*
X151871071Y-80146666D02*
X151871071Y-80718095D01*
X151871071Y-80432380D02*
X150371071Y-80432380D01*
X150585357Y-80527619D01*
X150728214Y-80622857D01*
X150799642Y-80718095D01*
X153500357Y-97789523D02*
X153500357Y-97456190D01*
X154286071Y-97313333D02*
X154286071Y-97789523D01*
X152786071Y-97789523D01*
X152786071Y-97313333D01*
X154286071Y-96884761D02*
X153286071Y-96884761D01*
X153571785Y-96884761D02*
X153428928Y-96837142D01*
X153357500Y-96789523D01*
X153286071Y-96694285D01*
X153286071Y-96599047D01*
X154286071Y-96265714D02*
X153286071Y-96265714D01*
X152786071Y-96265714D02*
X152857500Y-96313333D01*
X152928928Y-96265714D01*
X152857500Y-96218095D01*
X152786071Y-96265714D01*
X152928928Y-96265714D01*
X154214642Y-95360952D02*
X154286071Y-95456190D01*
X154286071Y-95646666D01*
X154214642Y-95741904D01*
X154143214Y-95789523D01*
X154000357Y-95837142D01*
X153571785Y-95837142D01*
X153428928Y-95789523D01*
X153357500Y-95741904D01*
X153286071Y-95646666D01*
X153286071Y-95456190D01*
X153357500Y-95360952D01*
X152786071Y-94313333D02*
X152786071Y-93741904D01*
X154286071Y-94027619D02*
X152786071Y-94027619D01*
X154286071Y-92980000D02*
X153500357Y-92980000D01*
X153357500Y-93027619D01*
X153286071Y-93122857D01*
X153286071Y-93313333D01*
X153357500Y-93408571D01*
X154214642Y-92980000D02*
X154286071Y-93075238D01*
X154286071Y-93313333D01*
X154214642Y-93408571D01*
X154071785Y-93456190D01*
X153928928Y-93456190D01*
X153786071Y-93408571D01*
X153714642Y-93313333D01*
X153714642Y-93075238D01*
X153643214Y-92980000D01*
X153286071Y-92599047D02*
X154286071Y-92360952D01*
X153286071Y-92122857D02*
X154286071Y-92360952D01*
X154643214Y-92456190D01*
X154714642Y-92503809D01*
X154786071Y-92599047D01*
X154286071Y-91599047D02*
X154214642Y-91694285D01*
X154071785Y-91741904D01*
X152786071Y-91741904D01*
X154286071Y-91075238D02*
X154214642Y-91170476D01*
X154143214Y-91218095D01*
X154000357Y-91265714D01*
X153571785Y-91265714D01*
X153428928Y-91218095D01*
X153357500Y-91170476D01*
X153286071Y-91075238D01*
X153286071Y-90932380D01*
X153357500Y-90837142D01*
X153428928Y-90789523D01*
X153571785Y-90741904D01*
X154000357Y-90741904D01*
X154143214Y-90789523D01*
X154214642Y-90837142D01*
X154286071Y-90932380D01*
X154286071Y-91075238D01*
X154286071Y-90313333D02*
X153286071Y-90313333D01*
X153571785Y-90313333D02*
X153428928Y-90265714D01*
X153357500Y-90218095D01*
X153286071Y-90122857D01*
X153286071Y-90027619D01*
D11*
%TO.C,U1*%
X125362380Y-94741904D02*
X126171904Y-94741904D01*
X126267142Y-94694285D01*
X126314761Y-94646666D01*
X126362380Y-94551428D01*
X126362380Y-94360952D01*
X126314761Y-94265714D01*
X126267142Y-94218095D01*
X126171904Y-94170476D01*
X125362380Y-94170476D01*
X126362380Y-93170476D02*
X126362380Y-93741904D01*
X126362380Y-93456190D02*
X125362380Y-93456190D01*
X125505238Y-93551428D01*
X125600476Y-93646666D01*
X125648095Y-93741904D01*
%TO.C,J1*%
X102192599Y-79068313D02*
X102192599Y-79782599D01*
X102144980Y-79925456D01*
X102049742Y-80020694D01*
X101906885Y-80068313D01*
X101811647Y-80068313D01*
X103192599Y-80068313D02*
X102621171Y-80068313D01*
X102906885Y-80068313D02*
X102906885Y-79068313D01*
X102811647Y-79211171D01*
X102716409Y-79306409D01*
X102621171Y-79354028D01*
D12*
%TO.C,U1*%
X147399067Y-93980000D02*
G75*
G03*
X147399067Y-93980000I-10239067J0D01*
G01*
%TO.C,J1*%
X102525933Y-81055933D02*
X103855933Y-81055933D01*
X103855933Y-83655933D02*
X103855933Y-104035933D01*
X101195933Y-83655933D02*
X103855933Y-83655933D01*
X101195933Y-83655933D02*
X101195933Y-104035933D01*
X101195933Y-104035933D02*
X103855933Y-104035933D01*
X103855933Y-81055933D02*
X103855933Y-82385933D01*
%TD*%
M02*
