%TF.GenerationSoftware,KiCad,Pcbnew,6.0.2+dfsg-1*%
%TF.CreationDate,2023-01-16T16:06:15-05:00*%
%TF.ProjectId,valve_breakout_small9,76616c76-655f-4627-9265-616b6f75745f,rev?*%
%TF.SameCoordinates,Original*%
%TF.FileFunction,Legend,Bot*%
%TF.FilePolarity,Positive*%
%FSLAX46Y46*%
G04 Gerber Fmt 4.6, Leading zero omitted, Abs format (unit mm)*
G04 Created by KiCad (PCBNEW 6.0.2+dfsg-1) date 2023-01-16 16:06:15*
%MOMM*%
%LPD*%
G01*
G04 APERTURE LIST*
%ADD10C,0.150000*%
G04 APERTURE END LIST*
D10*
X138293333Y-111359761D02*
X138150476Y-111407380D01*
X137912380Y-111407380D01*
X137817142Y-111359761D01*
X137769523Y-111312142D01*
X137721904Y-111216904D01*
X137721904Y-111121666D01*
X137769523Y-111026428D01*
X137817142Y-110978809D01*
X137912380Y-110931190D01*
X138102857Y-110883571D01*
X138198095Y-110835952D01*
X138245714Y-110788333D01*
X138293333Y-110693095D01*
X138293333Y-110597857D01*
X138245714Y-110502619D01*
X138198095Y-110455000D01*
X138102857Y-110407380D01*
X137864761Y-110407380D01*
X137721904Y-110455000D01*
X137436190Y-110740714D02*
X137055238Y-110740714D01*
X137293333Y-110407380D02*
X137293333Y-111264523D01*
X137245714Y-111359761D01*
X137150476Y-111407380D01*
X137055238Y-111407380D01*
X136293333Y-110740714D02*
X136293333Y-111407380D01*
X136721904Y-110740714D02*
X136721904Y-111264523D01*
X136674285Y-111359761D01*
X136579047Y-111407380D01*
X136436190Y-111407380D01*
X136340952Y-111359761D01*
X136293333Y-111312142D01*
X135388571Y-111407380D02*
X135388571Y-110407380D01*
X135388571Y-111359761D02*
X135483809Y-111407380D01*
X135674285Y-111407380D01*
X135769523Y-111359761D01*
X135817142Y-111312142D01*
X135864761Y-111216904D01*
X135864761Y-110931190D01*
X135817142Y-110835952D01*
X135769523Y-110788333D01*
X135674285Y-110740714D01*
X135483809Y-110740714D01*
X135388571Y-110788333D01*
X134912380Y-111407380D02*
X134912380Y-110740714D01*
X134912380Y-110407380D02*
X134960000Y-110455000D01*
X134912380Y-110502619D01*
X134864761Y-110455000D01*
X134912380Y-110407380D01*
X134912380Y-110502619D01*
X134293333Y-111407380D02*
X134388571Y-111359761D01*
X134436190Y-111312142D01*
X134483809Y-111216904D01*
X134483809Y-110931190D01*
X134436190Y-110835952D01*
X134388571Y-110788333D01*
X134293333Y-110740714D01*
X134150476Y-110740714D01*
X134055238Y-110788333D01*
X134007619Y-110835952D01*
X133960000Y-110931190D01*
X133960000Y-111216904D01*
X134007619Y-111312142D01*
X134055238Y-111359761D01*
X134150476Y-111407380D01*
X134293333Y-111407380D01*
X133340952Y-110407380D02*
X133245714Y-110407380D01*
X133150476Y-110455000D01*
X133102857Y-110502619D01*
X133055238Y-110597857D01*
X133007619Y-110788333D01*
X133007619Y-111026428D01*
X133055238Y-111216904D01*
X133102857Y-111312142D01*
X133150476Y-111359761D01*
X133245714Y-111407380D01*
X133340952Y-111407380D01*
X133436190Y-111359761D01*
X133483809Y-111312142D01*
X133531428Y-111216904D01*
X133579047Y-111026428D01*
X133579047Y-110788333D01*
X133531428Y-110597857D01*
X133483809Y-110502619D01*
X133436190Y-110455000D01*
X133340952Y-110407380D01*
X132674285Y-111407380D02*
X132150476Y-110740714D01*
X132674285Y-110740714D02*
X132150476Y-111407380D01*
X131912380Y-110740714D02*
X131531428Y-110740714D01*
X131769523Y-111407380D02*
X131769523Y-110550238D01*
X131721904Y-110455000D01*
X131626666Y-110407380D01*
X131531428Y-110407380D01*
X130483809Y-111359761D02*
X130340952Y-111407380D01*
X130102857Y-111407380D01*
X130007619Y-111359761D01*
X129960000Y-111312142D01*
X129912380Y-111216904D01*
X129912380Y-111121666D01*
X129960000Y-111026428D01*
X130007619Y-110978809D01*
X130102857Y-110931190D01*
X130293333Y-110883571D01*
X130388571Y-110835952D01*
X130436190Y-110788333D01*
X130483809Y-110693095D01*
X130483809Y-110597857D01*
X130436190Y-110502619D01*
X130388571Y-110455000D01*
X130293333Y-110407380D01*
X130055238Y-110407380D01*
X129912380Y-110455000D01*
X129483809Y-111407380D02*
X129483809Y-110740714D01*
X129483809Y-110835952D02*
X129436190Y-110788333D01*
X129340952Y-110740714D01*
X129198095Y-110740714D01*
X129102857Y-110788333D01*
X129055238Y-110883571D01*
X129055238Y-111407380D01*
X129055238Y-110883571D02*
X129007619Y-110788333D01*
X128912380Y-110740714D01*
X128769523Y-110740714D01*
X128674285Y-110788333D01*
X128626666Y-110883571D01*
X128626666Y-111407380D01*
X127721904Y-111407380D02*
X127721904Y-110883571D01*
X127769523Y-110788333D01*
X127864761Y-110740714D01*
X128055238Y-110740714D01*
X128150476Y-110788333D01*
X127721904Y-111359761D02*
X127817142Y-111407380D01*
X128055238Y-111407380D01*
X128150476Y-111359761D01*
X128198095Y-111264523D01*
X128198095Y-111169285D01*
X128150476Y-111074047D01*
X128055238Y-111026428D01*
X127817142Y-111026428D01*
X127721904Y-110978809D01*
X127102857Y-111407380D02*
X127198095Y-111359761D01*
X127245714Y-111264523D01*
X127245714Y-110407380D01*
X126579047Y-111407380D02*
X126674285Y-111359761D01*
X126721904Y-111264523D01*
X126721904Y-110407380D01*
X125579047Y-110407380D02*
X125245714Y-111407380D01*
X124912380Y-110407380D01*
X124150476Y-111407380D02*
X124150476Y-110883571D01*
X124198095Y-110788333D01*
X124293333Y-110740714D01*
X124483809Y-110740714D01*
X124579047Y-110788333D01*
X124150476Y-111359761D02*
X124245714Y-111407380D01*
X124483809Y-111407380D01*
X124579047Y-111359761D01*
X124626666Y-111264523D01*
X124626666Y-111169285D01*
X124579047Y-111074047D01*
X124483809Y-111026428D01*
X124245714Y-111026428D01*
X124150476Y-110978809D01*
X123531428Y-111407380D02*
X123626666Y-111359761D01*
X123674285Y-111264523D01*
X123674285Y-110407380D01*
X123245714Y-110740714D02*
X123007619Y-111407380D01*
X122769523Y-110740714D01*
X122007619Y-111359761D02*
X122102857Y-111407380D01*
X122293333Y-111407380D01*
X122388571Y-111359761D01*
X122436190Y-111264523D01*
X122436190Y-110883571D01*
X122388571Y-110788333D01*
X122293333Y-110740714D01*
X122102857Y-110740714D01*
X122007619Y-110788333D01*
X121960000Y-110883571D01*
X121960000Y-110978809D01*
X122436190Y-111074047D01*
X120436190Y-110883571D02*
X120293333Y-110931190D01*
X120245714Y-110978809D01*
X120198095Y-111074047D01*
X120198095Y-111216904D01*
X120245714Y-111312142D01*
X120293333Y-111359761D01*
X120388571Y-111407380D01*
X120769523Y-111407380D01*
X120769523Y-110407380D01*
X120436190Y-110407380D01*
X120340952Y-110455000D01*
X120293333Y-110502619D01*
X120245714Y-110597857D01*
X120245714Y-110693095D01*
X120293333Y-110788333D01*
X120340952Y-110835952D01*
X120436190Y-110883571D01*
X120769523Y-110883571D01*
X119769523Y-111407380D02*
X119769523Y-110740714D01*
X119769523Y-110931190D02*
X119721904Y-110835952D01*
X119674285Y-110788333D01*
X119579047Y-110740714D01*
X119483809Y-110740714D01*
X118769523Y-111359761D02*
X118864761Y-111407380D01*
X119055238Y-111407380D01*
X119150476Y-111359761D01*
X119198095Y-111264523D01*
X119198095Y-110883571D01*
X119150476Y-110788333D01*
X119055238Y-110740714D01*
X118864761Y-110740714D01*
X118769523Y-110788333D01*
X118721904Y-110883571D01*
X118721904Y-110978809D01*
X119198095Y-111074047D01*
X117864761Y-111407380D02*
X117864761Y-110883571D01*
X117912380Y-110788333D01*
X118007619Y-110740714D01*
X118198095Y-110740714D01*
X118293333Y-110788333D01*
X117864761Y-111359761D02*
X117960000Y-111407380D01*
X118198095Y-111407380D01*
X118293333Y-111359761D01*
X118340952Y-111264523D01*
X118340952Y-111169285D01*
X118293333Y-111074047D01*
X118198095Y-111026428D01*
X117960000Y-111026428D01*
X117864761Y-110978809D01*
X117388571Y-111407380D02*
X117388571Y-110407380D01*
X117293333Y-111026428D02*
X117007619Y-111407380D01*
X117007619Y-110740714D02*
X117388571Y-111121666D01*
X116436190Y-111407380D02*
X116531428Y-111359761D01*
X116579047Y-111312142D01*
X116626666Y-111216904D01*
X116626666Y-110931190D01*
X116579047Y-110835952D01*
X116531428Y-110788333D01*
X116436190Y-110740714D01*
X116293333Y-110740714D01*
X116198095Y-110788333D01*
X116150476Y-110835952D01*
X116102857Y-110931190D01*
X116102857Y-111216904D01*
X116150476Y-111312142D01*
X116198095Y-111359761D01*
X116293333Y-111407380D01*
X116436190Y-111407380D01*
X115245714Y-110740714D02*
X115245714Y-111407380D01*
X115674285Y-110740714D02*
X115674285Y-111264523D01*
X115626666Y-111359761D01*
X115531428Y-111407380D01*
X115388571Y-111407380D01*
X115293333Y-111359761D01*
X115245714Y-111312142D01*
X114912380Y-110740714D02*
X114531428Y-110740714D01*
X114769523Y-110407380D02*
X114769523Y-111264523D01*
X114721904Y-111359761D01*
X114626666Y-111407380D01*
X114531428Y-111407380D01*
X113579047Y-110407380D02*
X113245714Y-111407380D01*
X112912380Y-110407380D01*
X112388571Y-110407380D02*
X112293333Y-110407380D01*
X112198095Y-110455000D01*
X112150476Y-110502619D01*
X112102857Y-110597857D01*
X112055238Y-110788333D01*
X112055238Y-111026428D01*
X112102857Y-111216904D01*
X112150476Y-111312142D01*
X112198095Y-111359761D01*
X112293333Y-111407380D01*
X112388571Y-111407380D01*
X112483809Y-111359761D01*
X112531428Y-111312142D01*
X112579047Y-111216904D01*
X112626666Y-111026428D01*
X112626666Y-110788333D01*
X112579047Y-110597857D01*
X112531428Y-110502619D01*
X112483809Y-110455000D01*
X112388571Y-110407380D01*
X111626666Y-111312142D02*
X111579047Y-111359761D01*
X111626666Y-111407380D01*
X111674285Y-111359761D01*
X111626666Y-111312142D01*
X111626666Y-111407380D01*
X110626666Y-111407380D02*
X111198095Y-111407380D01*
X110912380Y-111407380D02*
X110912380Y-110407380D01*
X111007619Y-110550238D01*
X111102857Y-110645476D01*
X111198095Y-110693095D01*
X128269523Y-112493571D02*
X127936190Y-112493571D01*
X127793333Y-113017380D02*
X128269523Y-113017380D01*
X128269523Y-112017380D01*
X127793333Y-112017380D01*
X127364761Y-113017380D02*
X127364761Y-112350714D01*
X127364761Y-112541190D02*
X127317142Y-112445952D01*
X127269523Y-112398333D01*
X127174285Y-112350714D01*
X127079047Y-112350714D01*
X126745714Y-113017380D02*
X126745714Y-112350714D01*
X126745714Y-112017380D02*
X126793333Y-112065000D01*
X126745714Y-112112619D01*
X126698095Y-112065000D01*
X126745714Y-112017380D01*
X126745714Y-112112619D01*
X125840952Y-112969761D02*
X125936190Y-113017380D01*
X126126666Y-113017380D01*
X126221904Y-112969761D01*
X126269523Y-112922142D01*
X126317142Y-112826904D01*
X126317142Y-112541190D01*
X126269523Y-112445952D01*
X126221904Y-112398333D01*
X126126666Y-112350714D01*
X125936190Y-112350714D01*
X125840952Y-112398333D01*
X124793333Y-112017380D02*
X124221904Y-112017380D01*
X124507619Y-113017380D02*
X124507619Y-112017380D01*
X123460000Y-113017380D02*
X123460000Y-112493571D01*
X123507619Y-112398333D01*
X123602857Y-112350714D01*
X123793333Y-112350714D01*
X123888571Y-112398333D01*
X123460000Y-112969761D02*
X123555238Y-113017380D01*
X123793333Y-113017380D01*
X123888571Y-112969761D01*
X123936190Y-112874523D01*
X123936190Y-112779285D01*
X123888571Y-112684047D01*
X123793333Y-112636428D01*
X123555238Y-112636428D01*
X123460000Y-112588809D01*
X123079047Y-112350714D02*
X122840952Y-113017380D01*
X122602857Y-112350714D02*
X122840952Y-113017380D01*
X122936190Y-113255476D01*
X122983809Y-113303095D01*
X123079047Y-113350714D01*
X122079047Y-113017380D02*
X122174285Y-112969761D01*
X122221904Y-112874523D01*
X122221904Y-112017380D01*
X121555238Y-113017380D02*
X121650476Y-112969761D01*
X121698095Y-112922142D01*
X121745714Y-112826904D01*
X121745714Y-112541190D01*
X121698095Y-112445952D01*
X121650476Y-112398333D01*
X121555238Y-112350714D01*
X121412380Y-112350714D01*
X121317142Y-112398333D01*
X121269523Y-112445952D01*
X121221904Y-112541190D01*
X121221904Y-112826904D01*
X121269523Y-112922142D01*
X121317142Y-112969761D01*
X121412380Y-113017380D01*
X121555238Y-113017380D01*
X120793333Y-113017380D02*
X120793333Y-112350714D01*
X120793333Y-112541190D02*
X120745714Y-112445952D01*
X120698095Y-112398333D01*
X120602857Y-112350714D01*
X120507619Y-112350714D01*
M02*
